pl05
version=1
nRows=8
nColumns=43
inDegrees=yes
endheader
time	pelvis_tilt	pelvis_list	pelvis_rotation	pelvis_tx	pelvis_ty	pelvis_tz	hip_flexion_r	hip_adduction_r	hip_rotation_r	knee_angle_r	ankle_angle_r	subtalar_angle_r	mtp_angle_r	hip_flexion_l	hip_adduction_l	hip_rotation_l	knee_angle_l	ankle_angle_l	subtalar_angle_l	mtp_angle_l	lumbar_extension	lumbar_bending	lumbar_rotation	neck_flexion	neck_lateral_bending	neck_rotation	arm_flex_r	arm_add_r	arm_rot_r	elbow_flex_r	pro_sup_r	wrist_flex_r	wrist_dev_r	hand_finger_flex_r	arm_flex_l	arm_add_l	arm_rot_l	elbow_flex_l	pro_sup_l	wrist_flex_l	wrist_dev_l	hand_finger_flex_l
      1.30750000	     -3.60415724	     -7.98978106	     90.19002794	      0.02015937	      1.68102260	      1.77425580	     90.20921186	    -13.78475025	     10.78767328	   -126.59839506	     18.99776840	     12.70165964	     11.12058715	     86.29952378	    -11.20451919	      6.33676683	   -126.58454561	     16.18772160	     20.64885967	     29.55374966	    -46.97497729	     -5.18746978	      0.18013276	      5.98127501	      9.39882546	     -3.33738639	     98.99702526	    -62.67459188	     -8.56432186	     85.81877916	    161.08409170	     21.74961111	     25.74842353	     -4.22294396	    106.74693759	    -63.45625605	     10.39901683	     82.35184774	    157.19085289	      9.04512840	     29.08303984	     22.28562075
      1.31000000	     -3.59164691	     -7.95928597	     90.29293214	      0.02031231	      1.67993004	      1.77422594	     90.30554454	    -13.82403225	     10.85819657	   -126.81954224	     19.03455261	     12.89069913	     11.19646920	     86.46414544	    -11.11779463	      6.47045308	   -126.76966551	     16.15456380	     20.85844043	     29.61841008	    -46.84250729	     -5.12170407	      0.13982331	      5.89140539	      9.38363938	     -3.35154288	     99.31013594	    -62.70983375	     -8.00195106	     85.66120733	    161.17324970	     21.97676961	     25.90475169	     -4.16809180	    107.07319868	    -63.42865627	     10.94589255	     82.03520861	    157.14152483	      8.92560591	     29.06506579	     22.07818858
      1.31250000	     -3.59600005	     -7.93506756	     90.28404618	      0.02029146	      1.67983525	      1.77425626	     90.37633956	    -13.85384140	     10.86167569	   -126.84761361	     19.03618153	     12.89402809	     11.20129435	     86.47458320	    -11.13069096	      6.49549063	   -126.80904623	     16.15215793	     20.86393152	     29.62255682	    -46.91222624	     -5.11032848	      0.14921532	      5.85234072	      9.38570231	     -3.35306607	     99.36707078	    -62.73638214	     -8.02437904	     85.70559071	    161.17408952	     21.96839957	     25.92315119	     -4.16716788	    107.12406757	    -63.46486965	     10.93128951	     82.04626549	    157.14072077	      8.90954562	     29.08289640	     22.06723377
      1.31500000	     -3.59786661	     -7.93375650	     90.28463528	      0.02027860	      1.67973089	      1.77424847	     90.37554528	    -13.85402575	     10.86133984	   -126.84839005	     19.03607858	     12.89413841	     11.20137348	     86.47499712	    -11.13067045	      6.49585492	   -126.80878289	     16.15212464	     20.86404882	     29.62262423	    -46.91120782	     -5.11052155	      0.14999228	      5.85203728	      9.38576784	     -3.35309442	     99.36788170	    -62.73612305	     -8.02402490	     85.70678551	    161.17403712	     21.96822537	     25.92318254	     -4.16715560	    107.12532314	    -63.46512803	     10.93106377	     82.04710274	    157.14070267	      8.90914268	     29.08309208	     22.06703879
      1.31750000	     -3.62511439	     -7.91456317	     90.28667118	      0.02043965	      1.67940484	      1.77413910	     90.36547703	    -13.87235995	     10.86599976	   -126.92702612	     19.02932920	     12.89801848	     11.20497051	     86.49909726	    -11.13517049	      6.52997988	   -126.85176108	     16.14848299	     20.86966527	     29.62569372	    -46.91563081	     -5.13097310	      0.13885769	      5.83460347	      9.39138708	     -3.35549940	     99.41202339	    -62.73019591	     -8.00784423	     85.76984027	    161.17388469	     21.95871414	     25.92425028	     -4.16689082	    107.15476371	    -63.45965945	     10.94230391	     82.06895586	    157.13780080	      8.89482399	     29.08898447	     22.05799668
      1.32000000	     -3.62535730	     -7.91297180	     90.28704708	      0.02047023	      1.67932856	      1.77413725	     90.36681197	    -13.87238239	     10.86628430	   -126.92748135	     19.02924112	     12.89810047	     11.20504417	     86.49936438	    -11.13502259	      6.53025642	   -126.85258586	     16.14839035	     20.86983355	     29.62575691	    -46.91671202	     -5.13047276	      0.13929189	      5.83428309	      9.39150927	     -3.35556466	     99.41207054	    -62.73048604	     -8.00761458	     85.76977720	    161.17393005	     21.95884485	     25.92449283	     -4.16685329	    107.15531948	    -63.46051465	     10.94212476	     82.06833151	    157.13777108	      8.89465445	     29.08930844	     22.05780607
      1.32250000	     -3.63850791	     -7.83915052	     90.29005542	      0.02051234	      1.67873603	      1.77393698	     90.43115738	    -13.90142627	     10.91079130	   -127.10148782	     19.00822206	     12.90747063	     11.21446207	     86.51566969	    -11.13528056	      6.60713433	   -127.00841761	     16.13297337	     20.89452294	     29.63379315	    -46.96835799	     -5.12049850	      0.12212394	      5.79347469	      9.40738947	     -3.36539042	     99.47131075	    -62.74346022	     -7.95407143	     85.83814688	    161.18175376	     21.95832281	     25.93859792	     -4.16412323	    107.23494001	    -63.49417345	     10.95867764	     82.03351330	    157.13117092	      8.86374086	     29.11098223	     22.03106566
      1.32500000	     -3.63706767	     -7.83764579	     90.29112035	      0.02058282	      1.67868430	      1.77394956	     90.43137612	    -13.90153346	     10.91105155	   -127.10143816	     19.00808080	     12.90761114	     11.21454657	     86.51626382	    -11.13483335	      6.60695119	   -127.00848581	     16.13292221	     20.89481963	     29.63386607	    -46.96836327	     -5.12194089	      0.12169409	      5.79335767	      9.40742594	     -3.36545288	     99.47178845	    -62.74330115	     -7.95321448	     85.83847421	    161.18179840	     21.95837039	     25.93859007	     -4.16409450	    107.23473114	    -63.49415384	     10.95957123	     82.03318286	    157.13103037	      8.86357850	     29.11104713	     22.03084143
